<svg width="187" height="39" viewBox="0 0 187 39" fill="none" xmlns="http://www.w3.org/2000/svg">
<path d="M15.1579 31.9918L15.159 31.99L21.2627 22.0484L24.1006 23.6413L18.6532 33.9508L15.1579 31.9918ZM10.8229 9.52915L16.3846 19.8004L13.6227 21.4311L7.37518 11.5798L10.8229 9.52915ZM14.861 15.3589L20.2704 5.04944L23.7279 7.04591L23.7264 7.04824L17.6229 16.9896L14.861 15.3589ZM25.2629 17.5306L31.5865 27.3436L28.0903 29.4005H28.0658L22.4626 19.1995L25.2629 17.5306ZM6.56671 22.0051L18.1857 22.3487L18.2614 25.5724L6.56671 26.0688V22.027V22.0051ZM20.7001 13.4276L32.3952 12.9312L32.4331 16.9571H32.4112H32.411L20.7001 16.6894V13.4276Z" fill="white" stroke="white" stroke-width="0.0318652"/>
<path d="M52.56 34.4C50.64 34.4 48.8667 34.16 47.24 33.68C45.6133 33.1733 44.2 32.4533 43 31.52L45.72 27.88C46.92 28.68 48.0667 29.28 49.16 29.68C50.28 30.08 51.3867 30.28 52.48 30.28C53.7067 30.28 54.68 30.08 55.4 29.68C56.1467 29.2533 56.52 28.7067 56.52 28.04C56.52 27.5067 56.3067 27.08 55.88 26.76C55.48 26.44 54.8267 26.2133 53.92 26.08L49.92 25.48C47.84 25.16 46.2667 24.4933 45.2 23.48C44.1333 22.44 43.6 21.08 43.6 19.4C43.6 18.04 43.9467 16.88 44.64 15.92C45.36 14.9333 46.36 14.1733 47.64 13.64C48.9467 13.08 50.4933 12.8 52.28 12.8C53.8 12.8 55.28 13.0133 56.72 13.44C58.1867 13.8667 59.56 14.52 60.84 15.4L58.2 18.96C57.0533 18.24 55.96 17.72 54.92 17.4C53.88 17.08 52.8267 16.92 51.76 16.92C50.7733 16.92 49.9733 17.1067 49.36 17.48C48.7733 17.8533 48.48 18.3467 48.48 18.96C48.48 19.52 48.6933 19.96 49.12 20.28C49.5467 20.6 50.28 20.8267 51.32 20.96L55.28 21.56C57.36 21.8533 58.9467 22.52 60.04 23.56C61.1333 24.5733 61.68 25.8933 61.68 27.52C61.68 28.8533 61.28 30.04 60.48 31.08C59.68 32.0933 58.6 32.9067 57.24 33.52C55.88 34.1067 54.32 34.4 52.56 34.4Z" fill="white"/>
<path d="M82.5084 34H76.8884L72.3284 26.14L69.5284 29.48V34H64.6484V4H69.5284V21.9L76.1484 14H82.5284L75.6684 22.18L82.5084 34Z" fill="white"/>
<path d="M104.375 21.36V34H99.4947V22.64C99.4947 21.8533 99.3014 21.14 98.9147 20.5C98.528 19.8467 98.008 19.3333 97.3547 18.96C96.7147 18.5733 96.0014 18.38 95.2147 18.38C94.428 18.38 93.708 18.5733 93.0547 18.96C92.4147 19.3333 91.9014 19.8467 91.5147 20.5C91.1414 21.14 90.9547 21.8533 90.9547 22.64V34H86.0747L86.0547 14H90.9347L90.9547 15.78C91.6347 15.06 92.448 14.4933 93.3947 14.08C94.3414 13.6533 95.3614 13.44 96.4547 13.44C97.908 13.44 99.2347 13.8 100.435 14.52C101.635 15.2267 102.588 16.18 103.295 17.38C104.015 18.5667 104.375 19.8933 104.375 21.36Z" fill="white"/>
<path d="M123.089 4H127.969V34H123.089V31.5C122.449 32.3933 121.642 33.12 120.669 33.68C119.695 34.24 118.569 34.52 117.289 34.52C115.835 34.52 114.475 34.2467 113.209 33.7C111.942 33.1533 110.822 32.4 109.849 31.44C108.889 30.4667 108.135 29.3467 107.589 28.08C107.042 26.8133 106.769 25.4533 106.769 24C106.769 22.5467 107.042 21.1867 107.589 19.92C108.135 18.6533 108.889 17.54 109.849 16.58C110.822 15.6067 111.942 14.8467 113.209 14.3C114.475 13.7533 115.835 13.48 117.289 13.48C118.569 13.48 119.695 13.76 120.669 14.32C121.642 14.8667 122.449 15.5933 123.089 16.5V4ZM117.349 29.82C118.389 29.82 119.309 29.56 120.109 29.04C120.909 28.52 121.535 27.82 121.989 26.94C122.442 26.0467 122.669 25.0667 122.669 24C122.669 22.92 122.442 21.94 121.989 21.06C121.535 20.1667 120.902 19.46 120.089 18.94C119.289 18.42 118.375 18.16 117.349 18.16C116.322 18.16 115.382 18.4267 114.529 18.96C113.689 19.48 113.015 20.18 112.509 21.06C112.015 21.94 111.769 22.92 111.769 24C111.769 25.08 112.022 26.06 112.529 26.94C113.035 27.82 113.709 28.52 114.549 29.04C115.402 29.56 116.335 29.82 117.349 29.82Z" fill="white"/>
<path d="M147.541 14H152.421V34H147.541L147.321 31.52C146.774 32.4133 146.048 33.14 145.141 33.7C144.248 34.2467 143.188 34.52 141.961 34.52C140.481 34.52 139.094 34.24 137.801 33.68C136.508 33.12 135.368 32.3467 134.381 31.36C133.408 30.3733 132.641 29.2333 132.081 27.94C131.534 26.6467 131.261 25.26 131.261 23.78C131.261 22.3533 131.521 21.0133 132.041 19.76C132.574 18.5067 133.314 17.4067 134.261 16.46C135.208 15.5133 136.301 14.7733 137.541 14.24C138.781 13.7067 140.114 13.44 141.541 13.44C142.861 13.44 144.041 13.7333 145.081 14.32C146.134 14.9067 147.028 15.6533 147.761 16.56L147.541 14ZM141.841 29.82C142.881 29.82 143.801 29.56 144.601 29.04C145.401 28.52 146.028 27.82 146.481 26.94C146.934 26.0467 147.161 25.0667 147.161 24C147.161 22.92 146.934 21.94 146.481 21.06C146.028 20.1667 145.394 19.46 144.581 18.94C143.781 18.42 142.868 18.16 141.841 18.16C140.814 18.16 139.874 18.4267 139.021 18.96C138.181 19.48 137.508 20.18 137.001 21.06C136.508 21.94 136.261 22.92 136.261 24C136.261 25.08 136.514 26.06 137.021 26.94C137.528 27.82 138.201 28.52 139.041 29.04C139.894 29.56 140.828 29.82 141.841 29.82Z" fill="white"/>
<path d="M174.726 21.36V34H169.846V22.64C169.846 21.8533 169.653 21.14 169.266 20.5C168.88 19.8467 168.36 19.3333 167.706 18.96C167.066 18.5733 166.353 18.38 165.566 18.38C164.78 18.38 164.06 18.5733 163.406 18.96C162.766 19.3333 162.253 19.8467 161.866 20.5C161.493 21.14 161.306 21.8533 161.306 22.64V34H156.426L156.406 14H161.286L161.306 15.78C161.986 15.06 162.8 14.4933 163.746 14.08C164.693 13.6533 165.713 13.44 166.806 13.44C168.26 13.44 169.586 13.8 170.786 14.52C171.986 15.2267 172.94 16.18 173.646 17.38C174.366 18.5667 174.726 19.8933 174.726 21.36Z" fill="white"/>
<path d="M180.411 34.52C179.718 34.52 179.124 34.28 178.631 33.8C178.151 33.3067 177.911 32.7067 177.911 32C177.911 31.32 178.151 30.7333 178.631 30.24C179.124 29.7467 179.718 29.5 180.411 29.5C181.104 29.5 181.698 29.7467 182.191 30.24C182.684 30.7333 182.931 31.32 182.931 32C182.931 32.7067 182.684 33.3067 182.191 33.8C181.698 34.28 181.104 34.52 180.411 34.52Z" fill="white"/>
</svg>
