<svg width="700" height="320" viewBox="0 0 700 320" fill="none" xmlns="http://www.w3.org/2000/svg">
<g clip-path="url(#clip0_628_1934)">
<mask id="mask0_628_1934" style="mask-type:luminance" maskUnits="userSpaceOnUse" x="0" y="0" width="700" height="320">
<path d="M684 0H16C7.16344 0 0 7.16344 0 16V304C0 312.837 7.16344 320 16 320H684C692.837 320 700 312.837 700 304V16C700 7.16344 692.837 0 684 0Z" fill="white"/>
</mask>
<g mask="url(#mask0_628_1934)">
<path d="M684 0H16C7.16344 0 0 7.16344 0 16V304C0 312.837 7.16344 320 16 320H684C692.837 320 700 312.837 700 304V16C700 7.16344 692.837 0 684 0Z" fill="#090014"/>
<path d="M684 0H16C7.16344 0 0 7.16344 0 16V304C0 312.837 7.16344 320 16 320H684C692.837 320 700 312.837 700 304V16C700 7.16344 692.837 0 684 0Z" fill="url(#paint0_linear_628_1934)"/>
<g opacity="0.8" filter="url(#filter0_f_628_1934)">
<path d="M660 100C748.366 100 820 28.3656 820 -60C820 -148.366 748.366 -220 660 -220C571.634 -220 500 -148.366 500 -60C500 28.3656 571.634 100 660 100Z" fill="#7000FF" fill-opacity="0.31"/>
</g>
<g opacity="0.8" filter="url(#filter1_f_628_1934)">
<path d="M20 373C108.366 373 180 301.366 180 213C180 124.634 108.366 53 20 53C-68.3656 53 -140 124.634 -140 213C-140 301.366 -68.3656 373 20 373Z" fill="#C01BDB" fill-opacity="0.33"/>
</g>
<g opacity="0.8" filter="url(#filter2_f_628_1934)">
</g>
<g opacity="0.8" filter="url(#filter3_f_628_1934)">
<path d="M20 573C108.366 573 180 501.366 180 413C180 324.634 108.366 253 20 253C-68.3656 253 -140 324.634 -140 413C-140 501.366 -68.3656 573 20 573Z" fill="#FF0000" fill-opacity="0.22"/>
</g>
<path opacity="0.5" d="M350 271C411.304 271 461 221.304 461 160C461 98.6964 411.304 49 350 49C288.696 49 239 98.6964 239 160C239 221.304 288.696 271 350 271Z" stroke="url(#paint1_radial_628_1934)"/>
<path opacity="0.5" d="M350 239C393.63 239 429 203.63 429 160C429 116.37 393.63 81 350 81C306.37 81 271 116.37 271 160C271 203.63 306.37 239 350 239Z" stroke="url(#paint2_radial_628_1934)"/>
<path opacity="0.4" d="M511 321L189 -1" stroke="url(#paint3_radial_628_1934)"/>
<path opacity="0.6" d="M189 321L511 -1" stroke="url(#paint4_radial_628_1934)"/>
<path opacity="0.4" d="M0 160H700" stroke="url(#paint5_radial_628_1934)"/>
<path opacity="0.2" d="M271 0V320" stroke="url(#paint6_radial_628_1934)" stroke-dasharray="4 4"/>
<path opacity="0.2" d="M461 0V320" stroke="url(#paint7_radial_628_1934)" stroke-dasharray="4 4"/>
<path opacity="0.4" d="M350 0V320" stroke="url(#paint8_radial_628_1934)"/>
<path opacity="0.2" d="M429 0V320" stroke="url(#paint9_radial_628_1934)" stroke-dasharray="4 4"/>
<path opacity="0.2" d="M239 0V320" stroke="url(#paint10_radial_628_1934)" stroke-dasharray="4 4"/>
<path opacity="0.2" d="M0 50H700" stroke="url(#paint11_radial_628_1934)" stroke-dasharray="4 4"/>
<path opacity="0.2" d="M0 82H700" stroke="url(#paint12_radial_628_1934)" stroke-dasharray="4 4"/>
<path opacity="0.2" d="M0 271H700" stroke="url(#paint13_radial_628_1934)" stroke-dasharray="4 4"/>
<path opacity="0.2" d="M0 239H700" stroke="url(#paint14_radial_628_1934)" stroke-dasharray="4 4"/>
</g>
<path d="M389.992 207.278L406.344 197.421L376.839 150.508L363.686 158.54L389.814 207.278H389.992ZM329.56 219.508L346.09 229L371.507 179.714L358.176 172.048L329.738 219.508H329.56ZM289.746 172.048V191.397L344.313 189.024L343.957 173.508L289.746 171.865V172.048ZM410.255 147.952L410.077 128.603L355.51 130.976V146.675L410.077 147.952H410.255ZM309.653 112.357L293.479 122.214L322.628 169.31L335.603 161.46L309.653 112.357V112.357ZM369.907 100.675L353.555 91L328.316 140.286L341.291 148.135L369.73 100.675H369.907Z" fill="url(#paint15_radial_628_1934)"/>
</g>
<defs>
<filter id="filter0_f_628_1934" x="260" y="-460" width="800" height="800" filterUnits="userSpaceOnUse" color-interpolation-filters="sRGB">
<feFlood flood-opacity="0" result="BackgroundImageFix"/>
<feBlend mode="normal" in="SourceGraphic" in2="BackgroundImageFix" result="shape"/>
<feGaussianBlur stdDeviation="120" result="effect1_foregroundBlur_628_1934"/>
</filter>
<filter id="filter1_f_628_1934" x="-380" y="-187" width="800" height="800" filterUnits="userSpaceOnUse" color-interpolation-filters="sRGB">
<feFlood flood-opacity="0" result="BackgroundImageFix"/>
<feBlend mode="normal" in="SourceGraphic" in2="BackgroundImageFix" result="shape"/>
<feGaussianBlur stdDeviation="120" result="effect1_foregroundBlur_628_1934"/>
</filter>
<filter id="filter2_f_628_1934" x="260" y="80" width="800" height="800" filterUnits="userSpaceOnUse" color-interpolation-filters="sRGB">
<feFlood flood-opacity="0" result="BackgroundImageFix"/>
<feBlend mode="normal" in="SourceGraphic" in2="BackgroundImageFix" result="shape"/>
<feGaussianBlur stdDeviation="120" result="effect1_foregroundBlur_628_1934"/>
</filter>
<filter id="filter3_f_628_1934" x="-380" y="13" width="800" height="800" filterUnits="userSpaceOnUse" color-interpolation-filters="sRGB">
<feFlood flood-opacity="0" result="BackgroundImageFix"/>
<feBlend mode="normal" in="SourceGraphic" in2="BackgroundImageFix" result="shape"/>
<feGaussianBlur stdDeviation="120" result="effect1_foregroundBlur_628_1934"/>
</filter>
<linearGradient id="paint0_linear_628_1934" x1="1.27814e-05" y1="320" x2="710.784" y2="26.0793" gradientUnits="userSpaceOnUse">
<stop stop-color="#F3003A" stop-opacity="0.09"/>
<stop offset="0.729167" stop-color="#951168" stop-opacity="0.08"/>
</linearGradient>
<radialGradient id="paint1_radial_628_1934" cx="0" cy="0" r="1" gradientUnits="userSpaceOnUse" gradientTransform="translate(263 76) rotate(47.663) scale(243.508)">
<stop stop-color="#7219B7"/>
<stop offset="1" stop-color="#CD07AD"/>
</radialGradient>
<radialGradient id="paint2_radial_628_1934" cx="0" cy="0" r="1" gradientUnits="userSpaceOnUse" gradientTransform="translate(288.081 100.216) rotate(47.663) scale(173.307)">
<stop stop-color="#FD22D9"/>
<stop offset="1" stop-color="#FFDDF9" stop-opacity="0.47"/>
</radialGradient>
<radialGradient id="paint3_radial_628_1934" cx="0" cy="0" r="1" gradientUnits="userSpaceOnUse" gradientTransform="translate(350 160) rotate(-135) scale(258.996 182)">
<stop offset="0.0989011" stop-color="#770064"/>
<stop offset="1" stop-color="#510404" stop-opacity="0"/>
</radialGradient>
<radialGradient id="paint4_radial_628_1934" cx="0" cy="0" r="1" gradientUnits="userSpaceOnUse" gradientTransform="translate(350 160) rotate(-45) scale(258.996 182)">
<stop offset="0.0989011" stop-color="#770064"/>
<stop offset="1" stop-color="#510404" stop-opacity="0"/>
</radialGradient>
<radialGradient id="paint5_radial_628_1934" cx="0" cy="0" r="1" gradientUnits="userSpaceOnUse" gradientTransform="translate(-nan -nan) rotate(-nan) scale(-nan -nan)">
<stop offset="0.0989011" stop-color="#770064"/>
<stop offset="1" stop-color="#510404" stop-opacity="0"/>
</radialGradient>
<radialGradient id="paint6_radial_628_1934" cx="0" cy="0" r="1" gradientUnits="userSpaceOnUse" gradientTransform="translate(-nan -nan) rotate(-nan) scale(-nan -nan)">
<stop offset="0.348958" stop-color="#FF8E8E"/>
<stop offset="0.880208" stop-color="#FFC6F6" stop-opacity="0"/>
</radialGradient>
<radialGradient id="paint7_radial_628_1934" cx="0" cy="0" r="1" gradientUnits="userSpaceOnUse" gradientTransform="translate(-nan -nan) rotate(-nan) scale(-nan -nan)">
<stop offset="0.348958" stop-color="#FF8E8E"/>
<stop offset="0.880208" stop-color="#FFC6F6" stop-opacity="0"/>
</radialGradient>
<radialGradient id="paint8_radial_628_1934" cx="0" cy="0" r="1" gradientUnits="userSpaceOnUse" gradientTransform="translate(-nan -nan) rotate(-nan) scale(-nan -nan)">
<stop offset="0.0989011" stop-color="#770064"/>
<stop offset="1" stop-color="#510404" stop-opacity="0"/>
</radialGradient>
<radialGradient id="paint9_radial_628_1934" cx="0" cy="0" r="1" gradientUnits="userSpaceOnUse" gradientTransform="translate(-nan -nan) rotate(-nan) scale(-nan -nan)">
<stop offset="0.348958" stop-color="#FF8E8E"/>
<stop offset="0.880208" stop-color="#FFC6F6" stop-opacity="0"/>
</radialGradient>
<radialGradient id="paint10_radial_628_1934" cx="0" cy="0" r="1" gradientUnits="userSpaceOnUse" gradientTransform="translate(-nan -nan) rotate(-nan) scale(-nan -nan)">
<stop offset="0.348958" stop-color="#FF8E8E"/>
<stop offset="0.880208" stop-color="#FFC6F6" stop-opacity="0"/>
</radialGradient>
<radialGradient id="paint11_radial_628_1934" cx="0" cy="0" r="1" gradientUnits="userSpaceOnUse" gradientTransform="translate(-nan -nan) rotate(-nan) scale(-nan -nan)">
<stop offset="0.348958" stop-color="#FF8E8E"/>
<stop offset="0.880208" stop-color="#FFC6F6" stop-opacity="0"/>
</radialGradient>
<radialGradient id="paint12_radial_628_1934" cx="0" cy="0" r="1" gradientUnits="userSpaceOnUse" gradientTransform="translate(-nan -nan) rotate(-nan) scale(-nan -nan)">
<stop offset="0.348958" stop-color="#FF8E8E"/>
<stop offset="0.880208" stop-color="#FFC6F6" stop-opacity="0"/>
</radialGradient>
<radialGradient id="paint13_radial_628_1934" cx="0" cy="0" r="1" gradientUnits="userSpaceOnUse" gradientTransform="translate(-nan -nan) rotate(-nan) scale(-nan -nan)">
<stop offset="0.348958" stop-color="#FF8E8E"/>
<stop offset="0.880208" stop-color="#FFC6F6" stop-opacity="0"/>
</radialGradient>
<radialGradient id="paint14_radial_628_1934" cx="0" cy="0" r="1" gradientUnits="userSpaceOnUse" gradientTransform="translate(-nan -nan) rotate(-nan) scale(-nan -nan)">
<stop offset="0.348958" stop-color="#FF8E8E"/>
<stop offset="0.880208" stop-color="#FFC6F6" stop-opacity="0"/>
</radialGradient>
<radialGradient id="paint15_radial_628_1934" cx="0" cy="0" r="1" gradientUnits="userSpaceOnUse" gradientTransform="translate(295.224 219.591) rotate(-44.9537) scale(162.187 163.228)">
<stop stop-color="#FF7246"/>
<stop offset="1" stop-color="#A073FF" stop-opacity="0.86"/>
</radialGradient>
<clipPath id="clip0_628_1934">
<rect width="700" height="320" fill="white"/>
</clipPath>
</defs>
</svg>
